<svg width="32" height="32" viewBox="0 0 32 32" fill="none" xmlns="http://www.w3.org/2000/svg">
<path d="M28.972 23.4002C29.6772 21.9665 30.0287 20.3848 29.997 18.7874C29.9653 17.19 29.5513 15.6235 28.7897 14.219C28.0281 12.8145 26.941 11.613 25.6195 10.715C24.2981 9.81697 22.7807 9.24867 21.1945 9.05766C20.6684 7.83132 19.9022 6.72267 18.941 5.79703C17.9798 4.87139 16.8431 4.14748 15.5978 3.66796C14.3526 3.18844 13.0239 2.96301 11.6901 3.00494C10.3564 3.04687 9.04449 3.35532 7.83179 3.91212C6.61908 4.46891 5.53008 5.26279 4.62895 6.24698C3.72781 7.23117 3.03277 8.38576 2.58477 9.64273C2.13677 10.8997 1.94487 12.2336 2.02038 13.5659C2.0959 14.8982 2.4373 16.2019 3.02446 17.4002L2.06696 20.7527C1.98152 21.0526 1.97778 21.3699 2.05612 21.6718C2.13446 21.9736 2.29205 22.249 2.51256 22.4696C2.73308 22.6901 3.00852 22.8477 3.31037 22.926C3.61223 23.0044 3.92954 23.0006 4.22946 22.9152L7.58196 21.9577C8.5936 22.4544 9.68179 22.7768 10.8007 22.9114C11.3341 24.161 12.1165 25.2889 13.1002 26.226C14.084 27.1632 15.2483 27.8901 16.5223 28.3624C17.7963 28.8346 19.1532 29.0422 20.5101 28.9727C21.867 28.9031 23.1955 28.5577 24.4145 27.9577L27.767 28.9152C28.0669 29.0006 28.3842 29.0044 28.6861 28.926C28.9879 28.8477 29.2633 28.6901 29.4839 28.4696C29.7044 28.249 29.862 27.9736 29.9403 27.6718C30.0186 27.3699 30.0149 27.0526 29.9295 26.7527L28.972 23.4002ZM7.68946 19.8877C7.59652 19.8877 7.50401 19.9003 7.41446 19.9252L4.11321 20.8689L5.05696 17.5677C5.12769 17.3162 5.09718 17.047 4.97196 16.8177C4.05248 15.1296 3.77209 13.1667 4.18216 11.2887C4.59223 9.41067 5.66531 7.74332 7.20476 6.59216C8.7442 5.44099 10.6469 4.88311 12.5642 5.02075C14.4816 5.15838 16.2851 5.9823 17.6443 7.34155C19.0036 8.70079 19.8275 10.5043 19.9651 12.4216C20.1028 14.339 19.5449 16.2417 18.3937 17.7811C17.2426 19.3206 15.5752 20.3936 13.6972 20.8037C11.8192 21.2138 9.8563 20.9334 8.16821 20.0139C8.02186 19.9321 7.85715 19.8886 7.68946 19.8877ZM26.9395 23.5677L27.8832 26.8689L24.582 25.9252C24.3305 25.8544 24.0613 25.8849 23.832 26.0102C21.9886 27.013 19.8252 27.2522 17.8073 26.6762C15.7893 26.1002 14.0782 24.755 13.042 22.9302C14.4113 22.7876 15.7363 22.3635 16.934 21.6846C18.1317 21.0057 19.1762 20.0866 20.0019 18.985C20.8276 17.8833 21.4167 16.6229 21.7323 15.2829C22.0478 13.9428 22.083 12.552 21.8357 11.1977C23.034 11.4801 24.1509 12.0352 25.0996 12.8199C26.0482 13.6045 26.8029 14.5975 27.305 15.7216C27.8071 16.8457 28.043 18.0704 27.9944 19.3006C27.9457 20.5307 27.6138 21.733 27.0245 22.8139C26.8982 23.0443 26.8677 23.315 26.9395 23.5677Z" fill="#FCFCFC"/>
</svg>
