<svg width="60" height="60" viewBox="0 0 60 60" fill="none" xmlns="http://www.w3.org/2000/svg">
<path d="M30.1252 0C38.1169 0.00396528 45.6178 3.09991 51.258 8.71964C56.8985 14.3391 60.003 21.8097 60 29.7529C59.9934 45.9823 46.8572 59.2167 30.6187 59.4798L30.1259 59.4838H30.1134C25.1904 59.4822 20.3517 58.2723 16.039 55.9745L15.8374 55.8658L0 60L4.2382 44.5926C1.62422 40.0847 0.248672 34.9695 0.250781 29.7291C0.257344 13.3369 13.6591 0 30.1252 0ZM30.1355 5.02191C16.4393 5.02191 5.30016 16.1067 5.29477 29.7316C5.29289 34.3295 6.56602 38.81 8.97891 42.7032L9.09094 42.8826L9.68156 43.8177L7.17305 52.9362L16.5708 50.4831L17.4776 51.0182C21.2292 53.2338 25.5213 54.4234 29.9034 54.4619L30.1155 54.4628H30.1259C43.8115 54.4628 54.9504 43.3773 54.956 29.7515C54.9584 23.1486 52.3784 16.9397 47.6902 12.2688C43.002 7.59817 36.7676 5.024 30.1355 5.02167V5.02191ZM19.5487 15.9994C20.0461 15.9994 20.5448 16.0041 20.9794 16.0262C21.4378 16.0486 22.053 15.8529 22.6587 17.3012C22.8912 17.8563 23.2446 18.714 23.6065 19.5901L23.6841 19.7779C24.2665 21.1879 24.8487 22.5937 24.9607 22.8169C25.147 23.1885 25.2712 23.6228 25.0226 24.1182C24.7741 24.6143 24.6492 24.9239 24.2763 25.3582C23.903 25.7916 23.4926 26.3269 23.1567 26.6595C23.1384 26.6775 23.1201 26.6957 23.1019 26.7138L23.0475 26.7691C22.7147 27.1118 22.4362 27.5046 22.8295 28.1749C23.2648 28.919 24.7627 31.3523 26.9817 33.3218C29.8329 35.8526 32.2383 36.6373 32.9848 37.0093C33.731 37.3811 34.1667 37.3191 34.602 36.8227C35.0377 36.3273 36.4678 34.654 36.9656 33.9101C37.4632 33.1665 37.9608 33.2908 38.6452 33.5385C38.9702 33.6563 39.9703 34.1242 41.0105 34.6229L41.3339 34.7783C42.3752 35.2798 43.3908 35.7785 43.7456 35.9553C44.4921 36.3273 44.9899 36.5132 45.1763 36.8227C45.3628 37.1329 45.3628 38.6199 44.7408 40.3553C44.119 42.0907 41.1366 43.6745 39.7024 43.8881C38.4164 44.0789 36.7891 44.1587 35.0009 43.5938C33.9171 43.2509 32.5263 42.794 30.7453 42.0287C23.2575 38.8112 18.3668 31.307 17.9939 30.8116L17.9686 30.778C17.5137 30.173 14.9456 26.7089 14.9456 23.1264C14.9456 19.4702 16.8743 17.673 17.5582 16.9292C18.2426 16.186 19.0512 15.9994 19.5487 15.9994Z" fill="#FCFCFC"/>
</svg>
