<svg width="158" height="63" viewBox="0 0 158 63" fill="none" xmlns="http://www.w3.org/2000/svg">
<path d="M107.928 8.63037C109.669 8.64847 111.41 8.63358 113.151 8.63533C113.158 13.9345 113.155 19.2314 113.151 24.5283C111.41 24.5298 109.667 24.5321 107.927 24.5298C107.928 19.2311 107.923 13.9307 107.928 8.63037ZM119.487 26.5673C124.271 21.6642 129.002 16.7015 133.782 11.7919C135.007 13.0773 136.272 14.328 137.473 15.6394C132.742 20.5869 127.966 25.485 123.232 30.4279C121.963 29.1626 120.735 27.8542 119.487 26.5673ZM27.8581 23.6553C29.1762 23.3418 30.5261 23.1661 31.8792 23.2204C36.3673 23.1133 40.727 25.4608 43.5078 29.0575C44.8306 30.76 45.7972 32.7611 46.3325 34.8737C44.276 34.8815 42.2197 34.8751 40.1635 34.8751C39.2572 33.0071 37.8694 31.3447 36.0587 30.3756C35.0604 29.8126 33.9624 29.4381 32.8345 29.2937C31.7813 29.2724 30.7039 29.1787 29.6724 29.4545C27.9375 29.8436 26.3248 30.7857 25.097 32.1137C23.4949 33.6732 22.4211 35.8678 22.3261 38.1595C22.1204 40.3427 22.5225 42.631 23.7236 44.468C24.8786 46.2274 26.5121 47.6935 28.4463 48.4489C31.6896 49.6899 35.6154 48.9416 38.0993 46.4072C38.9356 45.5305 39.6596 44.5244 40.1858 43.4161C42.2324 43.4062 44.2795 43.4048 46.3281 43.4161C45.821 45.6571 44.7166 47.7335 43.3212 49.5127C42.3638 50.5489 41.4246 51.6341 40.2458 52.4055C34.9557 56.1794 27.274 55.966 22.3005 51.6994C20.7546 50.3373 19.341 48.7696 18.3697 46.9081C16.5795 43.6184 16.133 39.6641 16.7665 35.9787C17.3006 32.8551 18.8848 29.9775 21.0677 27.7762C22.909 25.7921 25.2651 24.2948 27.8581 23.6553ZM49.4658 23.2181C51.4191 23.2181 53.3742 23.2181 55.3273 23.2181C55.3258 33.8868 55.3323 44.5547 55.3243 55.2232C53.371 55.2282 51.4188 55.2197 49.4655 55.2212C49.4658 44.5533 49.4658 33.8868 49.4658 23.2181ZM67.1782 29.5888C68.2891 29.3558 69.4261 29.4875 70.5493 29.4574C71.8518 29.5742 73.1573 29.7677 74.396 30.2224C75.6383 30.669 76.9167 31.2285 77.7865 32.2941C78.8089 33.5532 79.1708 35.2274 79.2505 36.833C79.2472 42.9623 79.2557 49.0933 79.2472 55.2229C77.2651 55.2136 75.282 55.2658 73.3016 55.1966C73.2825 54.3631 73.3172 53.5274 73.2887 52.6953C71.5632 54.2364 69.2818 54.9459 67.045 55.1246C65.6335 55.3756 64.1728 55.1494 62.8262 54.6815C61.093 54.084 59.6655 52.5902 59.154 50.7681C58.5996 48.8245 58.7154 46.6971 59.363 44.7944C60.0665 42.8555 61.7617 41.4772 63.6251 40.848C66.0121 39.9732 68.5645 39.8384 71.0329 39.3329C71.8868 39.3329 72.7311 38.7865 73.0479 37.9558C73.2761 37.0484 73.0782 35.9107 72.3066 35.3345C71.4573 34.7555 70.4197 34.6352 69.4282 34.6057C68.5457 34.6335 67.6127 34.6434 66.8313 35.1276C65.816 35.7236 65.3598 36.9089 65.1599 38.0416C63.1971 37.999 61.2323 38.0445 59.2696 38.0089C59.5138 36.0096 59.9177 33.8755 61.3026 32.3589C62.7533 30.5998 65.0014 29.763 67.1782 29.5888ZM71.4985 43.4252C70.3388 43.7025 69.1968 44.0606 68.0177 44.2459C67.0797 44.438 66.0926 44.7515 65.4256 45.5021C64.4991 46.6364 64.4309 48.3861 65.1499 49.6485C65.4621 50.2275 66.0817 50.5118 66.6582 50.7188C68.5181 51.0912 70.5602 50.4908 71.918 49.1082C73.3105 47.3044 73.065 44.8615 73.0603 42.7014C72.5129 42.882 72.0705 43.3175 71.4985 43.4252ZM93.224 30.3181C94.4325 30.0111 95.6207 29.4956 96.89 29.6188C96.9041 31.6902 97.0123 33.7648 96.9705 35.8383C95.8905 35.6842 94.762 35.5593 93.7026 35.894C91.4162 36.5493 89.5043 38.6373 89.2365 41.1162C89.2203 41.6626 89.0781 42.1958 89.0731 42.7443C89.0698 46.9055 89.0781 51.0652 89.0731 55.2267C87.1247 55.2212 85.174 55.2413 83.2254 55.215C83.2033 47.0219 83.2204 38.8262 83.2362 30.6316C85.1249 30.6132 87.0118 30.6871 88.8987 30.7597C88.9017 31.7711 88.8746 32.7836 88.9117 33.7967C90.0158 32.271 91.4653 30.9515 93.224 30.3181ZM107.823 29.6827C108.693 29.5923 109.575 29.5067 110.451 29.5809C115.708 29.6498 120.507 33.8489 121.76 39.0871C122.842 43.3683 121.79 48.3073 118.661 51.4131C116.85 53.4372 114.366 54.8111 111.731 55.2232C110.461 55.2343 109.19 55.2282 107.921 55.2267C104.129 54.6733 100.833 51.991 98.9618 48.5945C97.0178 44.8667 97.0099 40.1411 98.9159 36.3949C100.726 32.9476 104.022 30.2458 107.823 29.6827ZM108.295 35.751C106.544 36.1617 105.054 37.4337 104.162 39.0261C102.829 41.3453 103.041 44.5069 104.704 46.5952C106.396 49.1184 109.872 49.9716 112.529 48.6768C114.073 47.9577 115.252 46.5444 115.908 44.9455C116.635 43.1091 116.503 40.9533 115.631 39.1957C114.714 37.4179 113.029 36.021 111.087 35.7011C110.158 35.6232 109.216 35.5952 108.295 35.751ZM125.846 36.6757C131.065 36.6757 136.285 36.6719 141.505 36.6789C141.502 38.4748 141.508 40.2724 141.503 42.0697C136.285 42.0633 131.068 42.0811 125.849 42.0732C125.841 40.2739 125.855 38.4745 125.846 36.6757Z" fill="#EE2323"/>
</svg>
