<svg width="158" height="63" viewBox="0 0 158 63" fill="none" xmlns="http://www.w3.org/2000/svg">
<path fill-rule="evenodd" clip-rule="evenodd" d="M131.675 18.7085C131.678 20.154 131.17 22.4108 129.576 24.0062C129.143 24.4423 128.662 24.8286 128.142 25.1577C127.394 25.6433 126.851 25.9813 127.157 26.7903C127.456 27.5824 128.38 27.3345 129.258 27.1351C129.54 27.0663 135.041 25.7402 135.112 25.7368C135.821 25.6021 136.555 25.7441 137.162 26.1332C137.769 26.5223 138.202 27.1287 138.372 27.8269L138.821 29.6803C138.992 30.3787 138.886 31.1156 138.526 31.7388C138.167 32.3621 137.58 32.8242 136.888 33.03C136.825 33.057 130.813 34.515 130.803 34.5172C129.661 34.8102 128.993 35.378 128.997 36.4777C128.997 36.9678 129.284 37.5007 129.636 37.9424C129.636 37.9424 136.192 46.0062 136.225 46.0693C136.654 46.648 136.842 47.3682 136.753 48.0813C136.663 48.7944 136.302 49.4462 135.744 49.9023L134.26 51.1079C133.702 51.5625 132.989 51.7855 132.269 51.7308C131.55 51.676 130.88 51.3476 130.397 50.8138C130.344 50.7688 126.272 45.8034 125.84 45.275C125.409 44.7499 124.866 43.9477 124.112 43.9511C123.362 43.9511 122.823 44.7578 122.392 45.2851C121.963 45.8147 117.914 50.8003 117.864 50.8443C117.384 51.3807 116.715 51.7128 115.996 51.7715C115.277 51.8303 114.562 51.6112 114.001 51.1597C113.989 51.1485 112.517 49.9621 112.513 49.9609C111.953 49.5073 111.588 48.8575 111.495 48.1451C111.401 47.4327 111.586 46.7117 112.01 46.1301C112.042 46.0671 118.56 37.9706 118.56 37.9706C118.909 37.5278 119.194 36.9926 119.192 36.5025C119.188 35.4028 118.521 34.8383 117.376 34.551C117.365 34.551 111.346 33.1201 111.285 33.0942C110.592 32.8917 110.003 32.4324 109.64 31.8109C109.276 31.1894 109.167 30.453 109.333 29.7535C109.336 29.7366 109.772 27.9023 109.774 27.8967C109.94 27.1981 110.37 26.5898 110.975 26.1976C111.58 25.8054 112.313 25.6594 113.023 25.7898C113.09 25.7898 118.6 27.0945 118.883 27.161C119.761 27.3548 120.69 27.6004 120.983 26.8061C121.283 25.9948 120.74 25.6591 119.99 25.178C119.468 24.8517 118.984 24.4677 118.549 24.0333C116.947 22.448 116.427 20.1912 116.424 18.7456C116.415 14.5994 119.874 11.2305 124.031 11.2193C128.188 11.208 131.665 14.5622 131.674 18.7085H131.675ZM30.649 43.781C30.3206 43.781 29.061 43.6097 28.3677 42.3489L20.2813 28.0567C19.4521 26.5424 20.4285 25.258 21.2939 24.9391L23.445 23.978C24.6015 23.462 25.9936 24.0073 26.5146 25.214L31.5869 35.387H31.6628L36.7419 25.214C37.263 24.0085 38.6528 23.462 39.8116 23.978L41.9626 24.9391C42.8269 25.258 43.8033 26.5424 42.9741 28.0567L34.8877 42.3489C34.6628 42.7626 34.3345 43.1115 33.9345 43.3622C33.5345 43.6128 33.0763 43.7567 32.6041 43.7798H30.6502L30.649 43.781ZM66.1801 43.781C65.708 43.7576 65.2499 43.6135 64.8501 43.3627C64.4503 43.1118 64.1223 42.7627 63.8977 42.3489L55.8101 28.0567C54.9798 26.5424 55.9585 25.258 56.8239 24.9391L58.9738 23.978C60.1314 23.462 61.5201 24.0073 62.0434 25.214L67.118 35.387H67.1928L72.2707 25.214C72.7929 24.0085 74.1828 23.462 75.3404 23.978L77.4914 24.9391C78.3557 25.258 79.3332 26.5424 78.5052 28.0567L70.4176 42.3489C70.193 42.7628 69.8648 43.1119 69.4647 43.3626C69.0647 43.6133 68.6063 43.757 68.1341 43.7798H66.1813L66.1801 43.781ZM89.9117 23.8519C95.4892 23.8519 100.005 28.3587 100.005 33.9156C100.005 39.4758 95.4892 43.9838 89.9128 43.9838C84.3398 43.9838 79.8203 39.4758 79.8203 33.9156C79.8203 28.3598 84.3398 23.8519 89.9128 23.8519H89.9117ZM53.343 18.1226C53.343 20.3016 51.5715 22.066 49.3876 22.066C48.8674 22.0657 48.3524 21.9635 47.872 21.7651C47.3916 21.5667 46.9552 21.2761 46.5877 20.9099C46.2203 20.5437 45.929 20.109 45.7305 19.6307C45.532 19.1525 45.4303 18.64 45.431 18.1226C45.431 15.9435 47.2026 14.1791 49.3876 14.1791C49.9076 14.1797 50.4224 14.2822 50.9027 14.4807C51.3829 14.6792 51.8191 14.9698 52.1864 15.336C52.5537 15.7022 52.8449 16.1367 53.0433 16.6149C53.2418 17.093 53.3436 17.6053 53.343 18.1226ZM89.9128 37.8906C90.971 37.8888 91.9851 37.469 92.7322 36.7236C93.4793 35.9782 93.8981 34.9681 93.8966 33.9156C93.8975 32.8635 93.4784 31.8541 92.7313 31.1094C91.9843 30.3646 90.9705 29.9454 89.9128 29.9439C89.3891 29.9445 88.8706 30.0477 88.3869 30.2476C87.9033 30.4475 87.4639 30.7403 87.094 31.1091C86.7241 31.4779 86.4308 31.9155 86.2309 32.3971C86.031 32.8786 85.9285 33.3946 85.9291 33.9156C85.9282 34.4368 86.0305 34.9531 86.2302 35.4349C86.43 35.9168 86.7232 36.3548 87.0931 36.7239C87.4631 37.093 87.9025 37.3861 88.3863 37.5862C88.8701 37.7864 89.3888 37.8898 89.9128 37.8906ZM45.9453 26.4928C45.9453 25.1487 47.0361 24.0592 48.384 24.0592H50.4252C51.7731 24.0592 52.865 25.1487 52.865 26.4928V41.3484C52.865 42.6926 51.7731 43.781 50.4252 43.781H48.384C48.0632 43.7807 47.7455 43.7175 47.4493 43.595C47.153 43.4725 46.8839 43.2931 46.6574 43.067C46.4309 42.841 46.2514 42.5728 46.1292 42.2777C46.007 41.9826 45.9445 41.6664 45.9453 41.3473V26.494V26.4928Z" fill="#660099"/>
</svg>
