<svg width="158" height="63" viewBox="0 0 158 63" fill="none" xmlns="http://www.w3.org/2000/svg">
<path fill-rule="evenodd" clip-rule="evenodd" d="M16.796 35.7475H10.0461V42.8969H4.34082V24.1646H10.0461V30.7948H16.796V24.1646H22.5013V42.8969H16.796V35.7475ZM34.6755 41.3792C33.8719 42.2579 32.3854 43.2165 29.9747 43.2165C26.8006 43.2165 25.4346 41.3392 25.4346 38.9827V29.317H30.5372V36.8658C30.5372 38.2238 31.2604 38.783 32.5059 38.783C33.6309 38.783 34.2335 38.1839 34.6353 37.7046V29.317H39.7379V42.8969H34.6755V41.3792ZM48.2955 44.2549C46.8491 44.2549 45.2822 43.8156 44.2375 42.7771L42.1081 46.2919C43.9161 47.7298 46.0054 48.3289 48.3357 48.3289C51.7107 48.3289 56.5722 47.2505 56.5722 41.3792V29.277H51.4696V30.7149C50.3446 29.4368 49.0187 28.9575 47.6125 28.9575C44.2375 28.9575 41.626 31.2341 41.626 35.7475C41.626 40.4206 44.3179 42.5375 47.6125 42.5375C49.0589 42.5375 50.3044 42.0182 51.4696 40.7002V41.4191C51.4696 43.8156 49.5009 44.2549 48.2955 44.2549ZM49.3803 33.4708C50.0232 33.4708 50.9875 33.7904 51.4696 34.3495V37.2253C50.9875 37.7845 50.0232 38.104 49.3803 38.104C48.0143 38.104 46.8491 37.425 46.8491 35.7874C46.8491 34.1099 48.0143 33.4708 49.3803 33.4708ZM68.6657 35.3481C68.6657 33.9501 67.9024 33.4708 66.697 33.4708C65.5319 33.4708 64.9292 34.07 64.5274 34.5492V42.9369H59.4248V24.1646H64.5274V30.8747C65.331 29.956 66.8176 28.9974 69.2282 28.9974C72.4023 28.9974 73.7683 30.8347 73.7683 33.2312V42.9369H68.6657V35.3481ZM90.1611 36.6262C90.1611 31.8732 87.0674 28.9974 83.0496 28.9974C78.6702 28.9974 75.6167 32.1528 75.6569 36.067C75.6569 40.5404 78.9917 43.2165 83.2505 43.2165C85.2996 43.2165 87.7103 42.6972 89.0763 41.5389L86.9871 38.4235C86.3041 38.9428 85.0585 39.3821 83.8934 39.3821C82.1657 39.3821 81.1613 38.5434 80.88 37.6647H90.1611V36.6262ZM83.0898 32.8318C84.7371 32.8318 85.1791 33.8703 85.3398 34.4694H80.8398C81.0006 33.8703 81.5229 32.8318 83.0898 32.8318ZM92.7728 37.7445C93.8576 38.5833 96.1478 39.462 97.6745 39.462C98.7192 39.462 99.0406 39.1824 99.0406 38.8229C99.0406 38.3836 98.4379 38.2238 97.1121 38.0241L96.9449 38.0009C94.6541 37.6835 91.2862 37.2169 91.2862 33.6306C91.2862 31.1942 93.4157 28.9974 97.3933 28.9974C99.6834 28.9974 101.733 29.7164 103.299 30.7548L101.451 34.03C100.608 33.3111 99.0406 32.6321 97.4335 32.6321C96.7103 32.6321 96.1478 32.8318 96.1478 33.2312C96.1478 33.6306 96.5496 33.7904 97.9156 33.9901L97.9804 33.9991C100.275 34.3189 103.902 34.8244 103.902 38.5833C103.902 41.2993 101.491 43.2564 97.4335 43.2564C94.9023 43.2564 92.2103 42.3777 90.7238 41.1795L92.7728 37.7445ZM109.647 42.8969V29.2371L119.491 42.8969H122.665V24.1646H119.37V37.4649L109.728 24.1646H106.353V42.8969H109.647ZM132.669 28.9974C136.768 28.9974 139.379 32.1128 139.379 36.3865V37.1055H128.853C129.094 39.1425 130.62 40.8599 133.192 40.8599C134.518 40.8599 136.085 40.3407 137.049 39.3821L138.415 41.3392C137.049 42.6174 135.04 43.2964 132.87 43.2964C128.772 43.2964 125.719 40.4605 125.719 36.1469C125.759 32.1528 128.652 28.9974 132.669 28.9974ZM128.853 34.9886H136.526C136.486 33.391 135.361 31.3939 132.669 31.3939C130.138 31.3939 128.973 33.351 128.853 34.9886ZM142.955 31.9131V39.7416C142.955 42.0182 144.16 43.2564 146.45 43.2964C147.857 43.2964 148.741 42.9369 149.263 42.4177L148.54 40.181C148.299 40.4206 147.776 40.6602 147.214 40.6602C146.37 40.6602 145.928 39.9812 145.928 39.0626V31.9531H148.7V29.3569H145.928V25.6424H142.955V29.317H140.705V31.9131H142.955ZM151.674 42.2978V40.5005H152.477C152.678 40.5005 152.839 40.5005 152.919 40.5404C152.999 40.5803 153.08 40.6203 153.12 40.7002C153.16 40.7801 153.2 40.8999 153.2 40.9798C153.2 41.0996 153.16 41.2194 153.08 41.3392C152.999 41.4191 152.879 41.499 152.718 41.499C152.799 41.5389 152.879 41.5789 152.919 41.6588C152.959 41.6987 153.04 41.8185 153.12 41.9783L153.361 42.3378H152.919L152.638 41.9383C152.557 41.7786 152.477 41.6987 152.437 41.6588C152.397 41.6188 152.357 41.5789 152.316 41.5789C152.3 41.5789 152.276 41.572 152.249 41.564C152.21 41.5526 152.163 41.5389 152.116 41.5389H152.035V42.2978H151.674ZM152.075 41.2593H152.357C152.517 41.2593 152.638 41.2593 152.678 41.2194C152.718 41.2194 152.758 41.1795 152.799 41.1395C152.839 41.0996 152.839 41.0596 152.839 41.0197C152.839 40.9398 152.839 40.8999 152.799 40.8599C152.758 40.82 152.718 40.7801 152.638 40.7801H152.357H152.075V41.2593ZM150.709 41.499C150.709 42.4576 151.513 43.2564 152.477 43.2564C153.481 43.2564 154.285 42.4576 154.245 41.499C154.245 40.5404 153.441 39.7416 152.477 39.7416C151.513 39.7416 150.709 40.5404 150.709 41.499ZM150.99 41.499C150.99 40.6602 151.673 40.0212 152.477 40.0212C153.321 40.0212 153.964 40.6602 153.964 41.499C153.964 42.3378 153.321 42.9768 152.477 42.9768C151.633 42.9768 150.99 42.2978 150.99 41.499Z" fill="#0091C4"/>
</svg>
