<svg width="158" height="63" viewBox="0 0 158 63" fill="none" xmlns="http://www.w3.org/2000/svg">
<path fill-rule="evenodd" clip-rule="evenodd" d="M98.8304 37.6028C92.6587 46.3917 79.6443 54.234 69.4487 54.234C59.2532 54.234 53.1491 47.568 52.5556 39.4005H51.8784C50.9177 50.0014 56.7218 57.6903 67.474 57.6903C78.2262 57.6903 92.3293 48.9163 99.1649 37.6028H98.8304ZM86.4045 6.09473C96.7795 6.09473 103.062 13.9119 101.975 24.6506L101.334 24.6296C100.82 16.4784 94.1087 9.93494 84.3994 9.93494C75.1186 9.93494 65.8246 15.2493 59.4305 22.2654H58.5944C65.6693 12.7735 76.3646 6.09473 86.4045 6.09473Z" fill="#808080"/>
<path fill-rule="evenodd" clip-rule="evenodd" d="M102.098 27.6167C104.015 27.6167 105.57 29.1625 105.57 31.0688C105.57 32.9751 104.015 34.5208 102.098 34.5208C100.18 34.5208 98.625 32.9751 98.625 31.0688C98.625 29.1625 100.18 27.6167 102.098 27.6167Z" fill="#E45A00"/>
<path fill-rule="evenodd" clip-rule="evenodd" d="M135.576 28.2867L136.122 25.3519L138.482 25.3866L139.092 22.7797L143.461 21.6531L142.582 25.4469L145.423 25.4889L144.878 28.4238L141.876 28.3795L141.118 31.7549C140.873 32.8412 140.749 33.5402 140.745 33.8517C140.732 34.7545 141.176 35.2125 142.077 35.2258C142.337 35.2297 142.781 35.1195 143.411 34.895L142.914 37.6673C141.949 37.8088 141.092 37.874 140.344 37.863C139.214 37.8464 138.324 37.5529 137.675 36.9828C136.951 36.3494 136.598 35.4254 136.615 34.2112C136.622 33.7129 136.756 32.8819 137.017 31.718L137.776 28.3192L135.576 28.2867ZM126.434 30.1372L131.497 30.2117C131.52 28.6085 130.859 27.7969 129.516 27.777C128.691 27.7648 127.992 28.0115 127.419 28.5171C126.94 28.9303 126.612 29.4704 126.434 30.1372ZM133.069 34.1123L132.5 37.07C131.027 37.4999 129.634 37.7052 128.321 37.6858C126.396 37.6576 124.884 37.0903 123.785 35.984C122.745 34.9567 122.237 33.6412 122.26 32.0379C122.284 30.2941 122.833 28.7531 123.906 27.4139C125.243 25.7521 127.111 24.9388 129.509 24.9741C131.174 24.9987 132.474 25.4383 133.409 26.2929C134.45 27.2268 134.957 28.5812 134.932 30.3559C134.923 30.9787 134.813 31.7399 134.602 32.6398L126.148 32.5153C126.188 34.0731 127.245 34.8673 129.323 34.8978C130.667 34.9176 131.915 34.6555 133.069 34.1123ZM107.504 37.099L109.487 28.1358C109.732 27.0187 109.915 25.9624 110.036 24.9676L113.862 25.024L113.513 27.0039L113.559 27.0046C114.909 25.5143 116.455 24.7819 118.196 24.8075C119.357 24.8247 120.26 25.2311 120.906 26.027C121.551 26.8227 121.865 27.8356 121.848 29.0654C121.839 29.6726 121.72 30.5271 121.491 31.6291L120.31 37.2877L116.049 37.2248L117.275 31.5439C117.472 30.6282 117.572 30.0143 117.576 29.7035C117.59 28.7535 117.062 28.2789 115.993 28.2786C114.404 28.2861 113.365 29.3841 112.875 31.5725L111.627 37.1597L107.504 37.099ZM88.4256 33.0813C88.4211 33.3928 88.5471 33.6748 88.8034 33.9278C89.0594 34.1809 89.3932 34.3102 89.806 34.3163C90.6614 34.3288 91.3601 34.0747 91.9022 33.5532C92.4441 33.0317 92.7976 32.3439 92.9626 31.49C92.8257 31.4567 92.4593 31.428 91.8638 31.4035C90.8717 31.3581 90.0522 31.4936 89.406 31.8112C88.76 32.1287 88.4331 32.5523 88.4256 33.0813ZM92.3362 36.876L92.5435 35.174L92.4986 35.1268L92.4981 35.1733C91.6544 36.4846 90.3084 37.1264 88.4604 37.0991C85.8029 37.06 84.4907 35.8651 84.524 33.5145C84.5443 32.0824 85.2019 30.9707 86.4963 30.1802C87.6828 29.4658 89.238 29.1227 91.1625 29.1511C91.6969 29.159 92.4374 29.2087 93.383 29.3006C93.4154 29.1924 93.4328 29.0289 93.4358 28.8108C93.4422 28.3595 93.2453 27.9827 92.8448 27.6812C92.4439 27.3792 91.9154 27.2237 91.2589 27.214C89.8841 27.1937 88.5891 27.4936 87.3731 28.1144L87.8291 25.0615C89.1796 24.6141 90.6415 24.4021 92.2148 24.4253C93.7576 24.448 94.9748 24.7773 95.8671 25.4133C96.8654 26.1443 97.3543 27.218 97.3342 28.6347C97.325 29.2885 97.1173 30.4532 96.7117 32.1289C96.2095 34.1461 95.8735 35.745 95.7039 36.9256L92.3362 36.876ZM84.3694 33.4186L83.729 36.5625C82.808 36.8603 81.6299 36.9986 80.1941 36.9774C78.4986 36.9525 77.1319 36.3874 76.0934 35.2822C75.1002 34.224 74.6147 32.909 74.637 31.3369C74.6657 29.313 75.4078 27.6228 76.863 26.2661C78.3181 24.9095 80.1758 24.248 82.4362 24.2812C83.6583 24.2992 84.9069 24.59 86.1821 25.1539L85.2474 28.0597C84.3218 27.6101 83.439 27.379 82.599 27.3665C81.5148 27.3506 80.6392 27.6724 79.9731 28.3325C79.2756 29.0385 78.918 30.0064 78.9005 31.2362C78.8899 31.9835 79.1408 32.6139 79.653 33.1276C80.1651 33.6408 80.849 33.9042 81.7042 33.9169C82.6204 33.9303 83.5089 33.7639 84.3694 33.4186ZM67.9683 36.5171L70.6151 24.3874L74.785 24.4488L72.138 36.5786L67.9683 36.5171ZM61.0661 24.2467L64.8919 24.3031L64.3984 26.7952L64.4441 26.7959C64.8218 26.0227 65.3194 25.3915 65.9375 24.9023C66.6331 24.3367 67.3777 24.0594 68.172 24.0712C68.8592 24.0813 69.4382 24.1909 69.9088 24.4004L68.9171 28.0994C68.4942 27.7505 67.8628 27.5702 67.0226 27.5578C65.4343 27.5344 64.3951 28.6322 63.9055 30.8519L62.6575 36.4388L58.5336 36.3781L60.5169 27.4152C60.7617 26.2975 60.9447 25.2416 61.0661 24.2467ZM50.5303 29.0198L55.5935 29.0944C55.6164 27.4909 54.9554 26.6793 53.6115 26.6596C52.7866 26.6474 52.0882 26.894 51.5155 27.3991C51.0362 27.8127 50.7077 28.353 50.5303 29.0198ZM57.1651 32.9947L56.5963 35.9525C55.1235 36.3823 53.7304 36.5876 52.417 36.5683C50.4925 36.54 48.9803 35.9729 47.8808 34.8667C46.8415 33.8391 46.333 32.5237 46.3558 30.9203C46.3805 29.1767 46.9296 27.6353 48.0023 26.2964C49.3396 24.6345 51.2073 23.8212 53.6054 23.8565C55.2702 23.8812 56.57 24.3209 57.5051 25.1752C58.5462 26.1095 59.0539 27.4638 59.0288 29.2384C59.0199 29.8612 58.9098 30.6223 58.6982 31.5223L50.2446 31.3977C50.2835 32.9555 51.3417 33.7497 53.419 33.7803C54.7629 33.8001 56.0118 33.5384 57.1651 32.9947ZM25.2536 35.888L27.2367 26.9249C27.4818 25.8074 27.6648 24.7515 27.786 23.7566L31.4514 23.8106L30.9619 26.0223L31.0079 25.9996C32.1158 24.3652 33.5328 23.561 35.2586 23.5865C36.0069 23.5974 36.6608 23.8095 37.2203 24.2224C37.8399 24.6831 38.2208 25.3116 38.3622 26.1078C39.4702 24.4736 40.9021 23.6695 42.6585 23.6953C43.6972 23.7107 44.5411 23.9877 45.1904 24.5267C45.9603 25.1766 46.3364 26.1243 46.3188 27.3694C46.3057 28.2881 46.2011 29.1975 46.0052 30.0976L44.6816 36.1742L40.5577 36.1133L41.8329 30.2228C41.9964 29.4626 42.0812 28.872 42.0871 28.4516C42.0991 27.6109 41.662 27.1842 40.7761 27.1712C40.0276 27.1601 39.4341 27.5406 38.9956 28.313C38.7292 28.7761 38.4899 29.4965 38.2773 30.4744L37.0295 36.0614L32.9057 36.0006L34.1807 30.1102C34.3443 29.3499 34.4291 28.7593 34.4351 28.3389C34.447 27.4982 34.0098 27.0715 33.1241 27.0584C32.3757 27.0475 31.782 27.4279 31.3434 28.2003C31.0772 28.6634 30.8378 29.3837 30.6255 30.3617L29.3775 35.9487L25.2536 35.888ZM16.582 32.0233C16.5776 32.3347 16.7035 32.6166 16.9596 32.8696C17.2157 33.1227 17.55 33.252 17.9624 33.2581C18.8178 33.2706 19.5163 33.0167 20.0585 32.495C20.6005 31.9735 20.954 31.2859 21.119 30.4318C20.9818 30.3985 20.6155 30.37 20.02 30.3455C19.0279 30.2999 18.2086 30.4356 17.5623 30.7531C16.9165 31.0707 16.5895 31.4942 16.582 32.0233ZM71.0111 23.3999L71.7194 19.9692L75.6493 20.0271L74.941 23.4578L71.0111 23.3999ZM20.4925 35.8178L20.7001 34.1159L20.6548 34.0686L20.6543 34.1153C19.8106 35.4265 18.4649 36.0683 16.6169 36.0411C13.9592 36.0019 12.6469 34.8069 12.6803 32.4563C12.7006 31.0243 13.358 29.9126 14.6524 29.122C15.8389 28.4077 17.3944 28.0645 19.3189 28.0929C19.8535 28.1008 20.5936 28.1505 21.5395 28.2424C21.5716 28.1342 21.5891 27.9707 21.5923 27.7528C21.5986 27.3013 21.4016 26.9245 21.0011 26.6231C20.6004 26.3212 20.0718 26.1655 19.4151 26.1559C18.0405 26.1356 16.7453 26.4355 15.5295 27.0563L15.9854 24.0033C17.3359 23.5559 18.7981 23.344 20.3712 23.3671C21.9138 23.3898 23.1314 23.7191 24.0237 24.3552C25.0215 25.0861 25.5105 26.16 25.4903 27.5767C25.4811 28.2305 25.2735 29.395 24.8679 31.0708C24.3659 33.0881 24.0299 34.6868 23.8605 35.8674L20.4925 35.8178Z" fill="#005994"/>
</svg>
