<svg width="235" height="88" viewBox="0 0 235 88" fill="none" xmlns="http://www.w3.org/2000/svg">
<path fill-rule="evenodd" clip-rule="evenodd" d="M25.3747 49.9327H15.3781V59.9193H6.92847V33.7534H15.3781V43.0147H25.3747V33.7534H33.8243V59.9193H25.3747V49.9327ZM51.8545 57.7993C50.6644 59.0267 48.4628 60.3656 44.8925 60.3656C40.1917 60.3656 38.1686 57.7435 38.1686 54.4518V40.9504H45.7256V51.4949C45.7256 53.3918 46.7967 54.1729 48.6413 54.1729C50.3074 54.1729 51.2 53.336 51.795 52.6665V40.9504H59.352V59.9193H51.8545V57.7993ZM72.0259 61.8162C69.8838 61.8162 67.5631 61.2025 66.016 59.7519L62.8623 64.6615C65.54 66.67 68.6342 67.5069 72.0854 67.5069C77.0838 67.5069 84.2838 66.0005 84.2838 57.7993V40.8946H76.7268V42.9031C75.0607 41.1178 73.097 40.4483 71.0144 40.4483C66.016 40.4483 62.1483 43.6284 62.1483 49.9328C62.1483 56.4603 66.135 59.4172 71.0144 59.4172C73.1565 59.4172 75.0012 58.6919 76.7268 56.8508V57.855C76.7268 61.2025 73.8111 61.8162 72.0259 61.8162ZM73.6326 46.7527C74.5846 46.7527 76.0127 47.199 76.7268 47.9801V51.997C76.0127 52.7781 74.5846 53.2244 73.6326 53.2244C71.6094 53.2244 69.8838 52.276 69.8838 49.9885C69.8838 47.6453 71.6094 46.7527 73.6326 46.7527ZM102.194 49.3748C102.194 47.4222 101.064 46.7527 99.2788 46.7527C97.5532 46.7527 96.6606 47.5895 96.0656 48.259V59.9751H88.5085V33.7534H96.0656V43.1263C97.2556 41.8431 99.4573 40.5041 103.028 40.5041C107.728 40.5041 109.752 43.0705 109.752 46.4179V59.9751H102.194V49.3748ZM134.029 51.1601C134.029 44.521 129.448 40.5041 123.497 40.5041C117.011 40.5041 112.489 44.9116 112.548 50.3791C112.548 56.6276 117.487 60.3656 123.795 60.3656C126.829 60.3656 130.4 59.6403 132.423 58.0224L129.329 53.6707C128.317 54.396 126.472 55.0097 124.747 55.0097C122.188 55.0097 120.701 53.8381 120.284 52.6107H134.029V51.1601ZM126.889 48.1474H120.224C120.463 47.3106 121.236 45.86 123.557 45.86C125.996 45.86 126.651 47.3106 126.889 48.1474ZM137.897 52.7223C139.504 53.8939 142.896 55.1213 145.157 55.1213C146.704 55.1213 147.18 54.7308 147.18 54.2286C147.18 53.6149 146.287 53.3918 144.324 53.1128L144.076 53.0804C140.684 52.637 135.696 51.9853 135.696 46.9758C135.696 43.5726 138.849 40.5041 144.74 40.5041C148.132 40.5041 151.167 41.5083 153.487 42.9589L150.75 47.5337C149.501 46.5295 147.18 45.5811 144.8 45.5811C143.729 45.5811 142.896 45.86 142.896 46.4179C142.896 46.9758 143.491 47.199 145.514 47.478L145.61 47.4906C149.008 47.9372 154.38 48.6434 154.38 53.8939C154.38 57.6877 150.81 60.4214 144.8 60.4214C141.051 60.4214 137.064 59.194 134.863 57.5203L137.897 52.7223ZM162.889 59.9193V40.8388L177.467 59.9193H182.168V33.7534H177.289V52.3317L163.008 33.7534H158.009V59.9193H162.889ZM196.985 40.5041C203.054 40.5041 206.922 44.8558 206.922 50.8254V51.8296H191.332C191.689 54.675 193.95 57.074 197.758 57.074C199.722 57.074 202.043 56.3487 203.471 55.0097L205.494 57.7435C203.471 59.5288 200.495 60.4772 197.282 60.4772C191.213 60.4772 186.691 56.5161 186.691 50.4907C186.75 44.9116 191.034 40.5041 196.985 40.5041ZM191.332 48.8727H202.697C202.638 46.6411 200.972 43.8516 196.985 43.8516C193.236 43.8516 191.51 46.5853 191.332 48.8727ZM212.218 44.5768V55.5118C212.218 58.6919 214.003 60.4214 217.395 60.4772C219.477 60.4772 220.786 59.9751 221.56 59.2498L220.489 56.1255C220.132 56.4603 219.358 56.795 218.525 56.795C217.276 56.795 216.621 55.8466 216.621 54.5634V44.6326H220.727V41.0062H216.621V35.8177H212.218V40.9504H208.885V44.5768H212.218ZM225.13 59.0824V56.5718H226.32C226.618 56.5718 226.856 56.5718 226.975 56.6276C227.094 56.6834 227.213 56.7392 227.272 56.8508C227.332 56.9624 227.391 57.1297 227.391 57.2413C227.391 57.4087 227.332 57.5761 227.213 57.7434C227.094 57.855 226.915 57.9666 226.677 57.9666C226.796 58.0224 226.915 58.0782 226.975 58.1898C227.034 58.2456 227.153 58.4129 227.272 58.6361L227.629 59.1382H226.975L226.558 58.5803C226.439 58.3571 226.32 58.2456 226.261 58.1898C226.201 58.134 226.142 58.0782 226.082 58.0782C226.058 58.0782 226.023 58.0686 225.982 58.0574C225.924 58.0415 225.854 58.0224 225.785 58.0224H225.666V59.0824H225.13ZM225.725 57.6319H226.142C226.38 57.6319 226.558 57.6319 226.618 57.5761C226.677 57.5761 226.737 57.5203 226.796 57.4645C226.856 57.4087 226.856 57.3529 226.856 57.2971C226.856 57.1855 226.856 57.1297 226.796 57.074C226.737 57.0182 226.677 56.9624 226.558 56.9624H226.142H225.725V57.6319ZM223.702 57.9666C223.702 59.3056 224.892 60.4214 226.32 60.4214C227.808 60.4214 228.998 59.3056 228.938 57.9666C228.938 56.6276 227.748 55.5118 226.32 55.5118C224.892 55.5118 223.702 56.6276 223.702 57.9666ZM224.118 57.9666C224.118 56.795 225.13 55.9024 226.32 55.9024C227.57 55.9024 228.522 56.795 228.522 57.9666C228.522 59.1382 227.57 60.0309 226.32 60.0309C225.071 60.0309 224.118 59.0824 224.118 57.9666Z" fill="#FCFCFC"/>
</svg>
