<svg width="158" height="63" viewBox="0 0 158 63" fill="none" xmlns="http://www.w3.org/2000/svg">
<mask id="mask0_549_10039" style="mask-type:luminance" maskUnits="userSpaceOnUse" x="42" y="0" width="74" height="63">
<path d="M42.6348 30.3523C42.6348 50.7291 59.9886 63 81.1815 63C100.553 63 115.394 49.0495 115.394 37.7733C115.394 27.1889 108.694 22.0881 100.006 16.3568C92.1982 11.2188 86.2353 0 70.1703 0C52.1244 0 42.6348 16.398 42.6348 30.3523Z" fill="white"/>
</mask>
<g mask="url(#mask0_549_10039)">
<path d="M42.6348 30.3523C42.6348 50.7291 59.9886 63 81.1815 63C100.553 63 115.394 49.0495 115.394 37.7733C115.394 27.1889 108.694 22.0881 100.006 16.3568C92.1982 11.2188 86.2353 0 70.1703 0C52.1244 0 42.6348 16.398 42.6348 30.3523Z" fill="url(#paint0_linear_549_10039)"/>
</g>
<path d="M72.2889 40.3326C70.044 40.3326 68.8005 38.0381 68.8005 35.714C68.8005 33.39 70.044 31.1622 72.2889 31.1622C74.5338 31.1622 75.768 33.3908 75.768 35.714C75.768 38.0373 74.5276 40.3326 72.2889 40.3326ZM72.2889 27.0546C67.3906 27.0546 64.1318 30.906 64.1318 35.7373C64.1318 40.5687 67.3906 44.4232 72.2889 44.4232C77.174 44.4232 80.4265 40.5749 80.4265 35.7373C80.4265 30.8998 77.174 27.0569 72.2889 27.0569M85.574 27.0662C83.9282 27.0662 82.5917 30.9526 82.5917 35.749C82.5917 40.5454 83.9282 44.4317 85.574 44.4317C87.2197 44.4317 88.5523 40.5454 88.5523 35.749C88.5523 30.9526 87.219 27.0662 85.574 27.0662ZM85.5357 24.9107C86.1146 24.9116 86.6807 24.7418 87.1625 24.4228C87.6443 24.1038 88.02 23.6499 88.2422 23.1185C88.4644 22.5871 88.5231 22.0021 88.4108 21.4376C88.2985 20.8731 88.0203 20.3544 87.6113 19.9471C87.2024 19.5398 86.6811 19.2622 86.1134 19.1495C85.5457 19.0368 84.9572 19.094 84.4223 19.3139C83.8873 19.5338 83.43 19.9065 83.1082 20.3849C82.7864 20.8632 82.6145 21.4257 82.6144 22.0012C82.6138 22.3829 82.689 22.7611 82.8356 23.1139C82.9821 23.4668 83.1972 23.7875 83.4685 24.0577C83.7398 24.3279 84.062 24.5423 84.4167 24.6887C84.7714 24.835 85.1516 24.9105 85.5357 24.9107Z" fill="white"/>
<defs>
<linearGradient id="paint0_linear_549_10039" x1="54.5516" y1="55.112" x2="97.6315" y2="11.7763" gradientUnits="userSpaceOnUse">
<stop stop-color="#FFFF00"/>
<stop offset="0.31" stop-color="#00D217"/>
<stop offset="0.5" stop-color="#00D217"/>
<stop offset="0.69" stop-color="#00D217"/>
<stop offset="1" stop-color="#00CDFF"/>
</linearGradient>
</defs>
</svg>
