<svg width="158" height="63" viewBox="0 0 158 63" fill="none" xmlns="http://www.w3.org/2000/svg">
<path d="M90.0416 12.082C90.8284 12.082 90.9858 12.1761 90.9858 14.9321V17.4689C90.9858 20.0997 90.7653 20.4129 90.0416 20.4129H81.1986V50.0721C81.1986 50.7297 80.349 50.8864 77.3909 50.8864H75.8174C72.7964 50.8864 72.2928 50.7297 72.2928 50.0721V20.4129H63.45C62.7261 20.4129 62.5059 20.1937 62.5059 17.4689V14.9321C62.5059 12.082 62.6633 12.082 63.45 12.082H90.0416ZM105.902 12.9276C105.902 12.3639 105.084 12.082 102.22 12.082H100.552C97.5313 12.082 97.0279 12.3326 97.0279 12.9276V50.1033C97.0279 50.7612 97.5313 50.9177 100.552 50.9177H102.22C105.084 50.9177 105.902 50.7612 105.902 50.1033V12.9276ZM149.078 12.082H146.466C143.13 12.082 142.942 12.4579 142.658 13.0216L137.497 25.33C135.767 29.4328 134.004 33.8174 133.343 36.1039C132.714 33.8174 131.581 30.7795 129.19 25.1108L124.06 13.0216C123.745 12.3013 122.455 12.082 119.623 12.082H116.728C113.864 12.082 113.297 12.3326 113.297 12.9276V50.1033C113.297 50.7612 113.864 50.9177 116.822 50.9177H118.427C121.354 50.9177 122.172 50.7612 122.172 50.1033V28.0235H122.392C122.392 28.0235 122.644 29.057 123.084 29.9966L129.001 43.8083C129.252 44.4347 129.567 44.6852 132.336 44.6852H134.099C136.899 44.6852 137.12 44.466 137.371 43.8083L142.784 30.4977C143.288 29.2449 143.665 28.0235 143.665 28.0235H143.886V50.0721C143.886 50.7297 144.452 50.8864 147.536 50.8864H149.11C151.973 50.8864 152.792 50.7297 152.792 50.0721V12.9276C152.792 12.3326 151.942 12.082 149.078 12.082Z" fill="#063B88"/>
<path d="M49.8152 20.4129H7.4819C6.85054 20.4129 6.28231 20.1624 5.87192 19.7552C5.46153 19.3481 5.20898 18.7843 5.20898 18.1892V14.337C5.20898 13.7106 5.46153 13.1782 5.87192 12.771C6.31388 12.3326 6.85054 12.082 7.4819 12.082H49.8152C50.4465 12.082 51.0148 12.3326 51.4252 12.7397C51.8356 13.1469 52.0881 13.6793 52.0881 14.3057V18.1266C52.0881 18.753 51.8356 19.2854 51.4252 19.6926C51.0148 20.131 50.4465 20.4129 49.8152 20.4129ZM23.9606 27.3344H7.4819C6.85054 27.3344 6.28231 27.585 5.90349 27.9921C5.4931 28.3993 5.24055 28.963 5.24055 29.5581V33.379C5.24055 34.0053 5.4931 34.5691 5.90349 34.945C6.31388 35.3522 6.88211 35.6027 7.51348 35.6027H23.9922V27.3344H23.9606ZM51.4252 28.0235C51.0148 27.6163 50.4465 27.3657 49.8152 27.3657H33.3363V35.6652H49.8152C50.4465 35.6652 51.0148 35.4147 51.4252 35.0076C51.8356 34.6004 52.0881 34.0366 52.0881 33.4417V29.5894C52.0881 28.963 51.8356 28.3993 51.4252 28.0235ZM51.4252 43.2758C51.0148 42.8687 50.4465 42.6181 49.8152 42.6181H33.3363V50.9177H49.8152C50.4465 50.9177 51.0148 50.6671 51.4252 50.26C51.8356 49.8528 52.0881 49.289 52.0881 48.6941V44.8731C52.0881 44.2467 51.8356 43.683 51.4252 43.2758ZM23.9606 42.6181H7.4819C6.85054 42.6181 6.28231 42.8686 5.90349 43.2758C5.4931 43.683 5.24055 44.2467 5.24055 44.8418V48.6627C5.24055 49.289 5.4931 49.8528 5.90349 50.2287C6.31388 50.6358 6.88211 50.8864 7.51348 50.8864H23.9922V42.6181L23.9606 42.6181Z" fill="#EB0028"/>
</svg>
