<svg width="139" height="90" viewBox="0 0 139 90" fill="none" xmlns="http://www.w3.org/2000/svg">
<g clip-path="url(#clip0_790_5357)">
<path d="M64.9798 32.3817C64.9798 41.3247 61.351 49.4197 55.4812 55.2808C49.6156 61.1386 41.5056 64.7634 32.554 64.7634H0.129883V51.5259H33.4786C43.4387 51.5259 51.5121 43.4632 51.5121 33.5165V30.8607C51.5121 20.9139 43.4387 12.8512 33.4786 12.8512H0.129883V0H32.5548C50.4605 0 64.9798 14.4966 64.9798 32.3817Z" fill="#FCFCFC"/>
<path d="M34.0945 25.3203H0.129883V38.712H34.0945V25.3203Z" fill="#FCFCFC"/>
<path d="M118.885 50.5644L139.001 64.0306H118.885L94.9714 48.023L71.0557 32.0153L94.9714 16.0077L118.885 0H139.001L118.885 13.4663L115.085 16.0077L91.1692 32.0153L115.085 48.023L118.885 50.5644Z" fill="#FCFCFC"/>
<path d="M13.827 83.4934C13.827 86.4484 11.7006 89.5659 7.57296 89.5659H0V69.5488H5.47139C9.02796 69.5488 11.2905 72.1565 11.2905 74.8513C11.2905 76.9749 9.88535 78.2912 9.40063 78.2912C11.3279 78.2912 13.827 80.2781 13.827 83.4942V83.4934ZM4.01639 73.4596V77.3711H5.64569C6.60268 77.3711 7.53561 76.5514 7.53561 75.3843C7.53561 74.2172 6.65248 73.4596 5.72039 73.4596H4.01722H4.01639ZM9.8978 83.2074C9.8978 82.0527 9.10183 80.8973 7.18701 80.8973H4.01639V85.641H7.19946C8.50505 85.641 9.8978 84.7467 9.8978 83.2074Z" fill="#FCFCFC"/>
<path d="M18.2588 82.1646V69.5488H22.3125V82.1522C22.3125 84.338 24.0406 85.927 25.9803 85.927C27.92 85.927 29.673 84.3247 29.673 82.1522V69.5488H33.7268V82.1646C33.7268 86.6971 30.2573 90.0002 25.9928 90.0002C21.7282 90.0002 18.2588 86.6971 18.2588 82.1646Z" fill="#FCFCFC"/>
<path d="M38.333 86.1137L41.5534 83.8541C42.4366 85.2699 43.7172 85.9156 45.4453 85.9156C47.3352 85.9156 48.6035 85.1455 48.6035 84.0779C48.6035 82.6124 46.2039 81.4578 44.1024 80.415C41.8514 79.2977 39.3772 78.0684 39.3772 74.8772C39.3772 71.4124 42.3112 69.1279 45.9923 69.1279C48.728 69.1279 50.9906 70.2577 51.8986 72.6789L48.9272 74.7528C48.3304 73.5609 47.1742 73.0768 46.0545 73.0768C44.5497 73.0768 43.4309 73.9463 43.4309 74.9766C43.4309 76.1686 44.9481 76.5789 47.2481 77.6589C50.5681 79.2231 52.6572 80.9124 52.6572 83.9917C52.6572 87.6422 49.6734 89.9648 45.3831 89.9648C42.1004 89.9648 39.676 88.5987 38.333 86.1154V86.1137Z" fill="#FCFCFC"/>
<path d="M67.546 89.5659L61.4529 80.7986V89.5659H57.4365V69.5488H61.4529V78.2033L67.0853 69.5488H71.7358L65.3075 79.3464L72.4447 89.5659H67.546Z" fill="#FCFCFC"/>
<path d="M78.2524 84.543C79.8485 84.543 81.1425 83.2507 81.1425 81.6567C81.1425 80.0627 79.8485 78.7705 78.2524 78.7705C76.6562 78.7705 75.3623 80.0627 75.3623 81.6567C75.3623 83.2507 76.6562 84.543 78.2524 84.543Z" fill="#FCFCFC"/>
<path d="M102.62 69.4991V89.938H102.433L90.5337 78.3774V89.5907H86.5049V69.1758H86.7041L98.579 80.7115V69.4982H102.62V69.4991Z" fill="#FCFCFC"/>
<path d="M112.474 73.5101V77.4217H119.387V81.4327H112.474V85.5673H120.532V89.5659H108.445V69.5488H120.532V73.5101H112.474Z" fill="#FCFCFC"/>
<path d="M138.516 73.535H133.592V89.5659H129.55V73.535H124.614V69.5488H138.515V73.535H138.516Z" fill="#FCFCFC"/>
</g>
<defs>
<clipPath id="clip0_790_5357">
<rect width="139" height="90" fill="white"/>
</clipPath>
</defs>
</svg>
