<svg width="386" height="250" viewBox="0 0 386 250" fill="none" xmlns="http://www.w3.org/2000/svg">
<g clip-path="url(#clip0_54_20)">
<path d="M180.446 89.9492C180.446 114.791 170.369 137.277 154.069 153.558C137.78 169.83 115.259 179.898 90.4005 179.898H0.359375V143.128H92.9681C120.627 143.128 143.047 120.731 143.047 93.1013V85.7241C143.047 58.0942 120.627 35.6978 92.9681 35.6978H0.359375V0H90.4028C140.126 0 180.446 40.2683 180.446 89.9492Z" fill="#FF6514"/>
<path d="M94.6784 70.3342H0.359375V107.533H94.6784V70.3342Z" fill="#FF6514"/>
<path d="M330.138 140.457L386 177.863H330.138L263.731 133.397L197.318 88.9315L263.731 44.4657L330.138 0H386L330.138 37.4063L319.586 44.4657L253.173 88.9315L319.586 133.397L330.138 140.457Z" fill="#FF6514"/>
<path d="M38.3974 231.926C38.3974 240.134 32.4922 248.794 21.0299 248.794H0V193.191H15.1939C25.0704 193.191 31.3536 200.434 31.3536 207.92C31.3536 213.819 27.4514 217.475 26.1053 217.475C31.4573 217.475 38.3974 222.994 38.3974 231.928V231.926ZM11.1534 204.054V214.919H15.678C18.3355 214.919 20.9262 212.642 20.9262 209.4C20.9262 206.158 18.4738 204.054 15.8854 204.054H11.1557H11.1534ZM27.486 231.131C27.486 227.924 25.2756 224.714 19.9582 224.714H11.1534V237.891H19.9927C23.6184 237.891 27.486 235.407 27.486 231.131Z" fill="#222121"/>
<path d="M50.7031 228.235V193.191H61.9603V228.2C61.9603 234.272 66.7591 238.686 72.1457 238.686C77.5322 238.686 82.4002 234.235 82.4002 228.2V193.191H93.6573V228.235C93.6573 240.825 84.0228 250 72.1802 250C60.3376 250 50.7031 240.825 50.7031 228.235Z" fill="#222121"/>
<path d="M106.45 239.204L115.393 232.927C117.845 236.86 121.402 238.653 126.2 238.653C131.449 238.653 134.971 236.514 134.971 233.549C134.971 229.478 128.307 226.271 122.471 223.374C116.22 220.27 109.349 216.856 109.349 207.991C109.349 198.367 117.497 192.021 127.719 192.021C135.316 192.021 141.6 195.159 144.121 201.885L135.869 207.646C134.212 204.335 131.002 202.99 127.892 202.99C123.713 202.99 120.606 205.405 120.606 208.267C120.606 211.578 124.82 212.718 131.207 215.718C140.426 220.063 146.228 224.756 146.228 233.309C146.228 243.449 137.942 249.901 126.028 249.901C116.912 249.901 110.179 246.107 106.45 239.208V239.204Z" fill="#222121"/>
<path d="M187.573 248.794L170.653 224.44V248.794H159.5V193.191H170.653V217.231L186.294 193.191H199.208L181.357 220.406L201.177 248.794H187.573Z" fill="#222121"/>
<path d="M217.306 234.84C221.739 234.84 225.332 231.251 225.332 226.823C225.332 222.395 221.739 218.806 217.306 218.806C212.874 218.806 209.281 222.395 209.281 226.823C209.281 231.251 212.874 234.84 217.306 234.84Z" fill="#222121"/>
<path d="M284.974 193.053V249.827H284.455L251.41 217.715V248.863H240.222V192.155H240.775L273.751 224.198V193.05H284.974V193.053Z" fill="#222121"/>
<path d="M312.337 204.194V215.06H331.535V226.202H312.337V237.686H334.713V248.794H301.149V193.191H334.713V204.194H312.337Z" fill="#222121"/>
<path d="M384.656 204.263H370.981V248.794H359.759V204.263H346.051V193.191H384.654V204.263H384.656Z" fill="#222121"/>
</g>
<defs>
<clipPath id="clip0_54_20">
<rect width="386" height="250" fill="white"/>
</clipPath>
</defs>
</svg>
